<svg width="32" height="32" viewBox="0 0 32 32" fill="none" xmlns="http://www.w3.org/2000/svg">
<mask id="mask0" mask-type="alpha" maskUnits="userSpaceOnUse" x="0" y="0" width="32" height="32">
<rect width="32" height="32" fill="#C4C4C4"/>
</mask>
<g mask="url(#mask0)">
<path d="M1.23303 14.9525L1.70105 13.8148L1.23303 12.2673L1.444 10.0734L1.70105 9.52956L0.59375 8.47589V7.0807L2.08997 6.53686L0.59375 6.04293V4.98926L3.83664 5.94043L0.8508 3.84898L0.59375 3.15273L5.84042 4.78694L1.23303 1.91252V0.756468L2.59747 1.3003L3.1973 0.414823L4.6012 0.501549L4.94397 1.1978L9.34033 2.59299L6.35446 0.417517L8.95807 0.604056L14.8441 3.64923L10.4543 0.504243L14.4617 0.606622L15.7009 0.964047L15.1077 0.162598L22.3581 4.44799L22.101 3.05279L17.9617 0.265104L24.9551 0.417517L26.7083 1.45541L26.1085 0.417517H41.2157L43.2194 1.20049L44.9727 0.417517L49.3625 0.265104H54.4839C57.5554 0.435889 59.9019 0.774881 61.4838 1.303L58.1948 1.7628L57.7268 2.25673L63.2305 1.55779C66.7304 2.39069 69.4131 3.64929 71.3378 5.34925L64.9838 4.44799L66.3482 5.24944L72.2408 6.18482L71.8585 11.9652L72.2408 13.4628L71.8585 14.2615L69.3406 14.0066L72.2408 15.3152L71.8585 24.0751V29.1592C71.2587 30.3836 70.6193 31.3032 69.8481 31.8813C69.0769 32.4593 67.1589 33.1214 64.0874 33.8887L58.5836 34.6874L62.9734 35.1971C66.9875 35.6569 69.7559 36.7289 71.3378 38.4288L71.5948 40.1314V41.3217L45.2297 53.1767C43.559 26.898 34.9028 47.429 28.0793 64.0439L26.7149 64.7402L28.0793 65.7779V66.9341L25.2253 65.8804L28.0793 67.7854V71.9183H19.7216L10.9749 69.622L18.8647 71.9183H12.4646L11.3573 70.9672L10.7179 71.9183H6.96088L6.1106 71.2221L4.95715 71.9183H2.35361V70.8648L0.606934 70.4233V69.4696L2.61066 70.1684L4.61441 70.8648L6.1106 69.7271L1.24625 68.6734V68.2321L5.85352 69.1332L1.24625 67.6356L0.606934 66.8369L9.86108 68.437L13.361 68.7759L1.71423 66.2404V65.3392L7.8573 65.8831C6.28199 65.4575 4.14642 64.9976 1.45718 64.5404L1.24625 63.6918L7.21796 64.8979L17.9683 67.1758L3.21045 63.5027L3.4675 62.654L9.61057 63.9467L7.86386 62.809L9.36014 61.0565L4.621 60.2577V59.3223L7.60687 59.6613L12.7282 60.7148L12.2141 59.9162L7.86386 59.1175V58.0638L10.4674 58.5236L13.1105 58.965L12.4712 58.1636L9.61057 57.5698L7.86386 57.4673C6.84222 55.544 7.82433 54.6087 10.7179 54.6796L10.9749 54.3723L14.2179 54.8321H16.2282L10.9816 53.3344L10.4674 52.6354L9.86761 51.4794L15.1143 53.5367L13.9608 52.3806L6.1106 49.7427L5.47128 50.544L6.36771 50.8829V52.2781L3.84982 52.3806L3.21045 52.8404L0.606934 52.7379L0.863953 51.6844L1.71423 51.2429L0.606934 50.8856V48.4525L4.1069 49.3012L0.606934 47.6538V46.4137V44.0648H2.61066L6.71042 43.5208L9.86761 42.4673L6.71042 43.1635L2.61066 43.7073H0.606934L0.863953 39.9318V35.05L1.24625 25.373L1.71423 24.5402L0.863953 24.0804V20.4912L1.71423 19.6925L0.606934 18.9095L1.24625 14.9631L1.23303 14.9525ZM0.59375 53.8625L3.44775 54.0148L2.97977 53.5209L0.59375 53.76V53.8625ZM6.35446 57.4516L3.45432 57.5541L2.08997 57.7065L5.20102 57.893L6.69724 57.8063L6.35446 57.449V57.4516ZM0.8508 55.7174V54.9161L2.97977 54.4563L2.34045 55.1552L0.8508 55.7174ZM7.58704 52.8272L6.09085 53.6602L5.83377 54.0175L9.84125 53.7626L7.58044 52.8272H7.58704ZM46.9698 1.1112V2.09649L49.8239 0.856281L46.9698 1.1112ZM48.7165 3.74648L46.0735 4.0014L45.4802 4.88675L46.3305 4.29031L48.7165 3.74648ZM40.5697 4.98669L42.1055 6.17687L43.4699 5.13898L40.5697 4.98669ZM55.9735 2.09649L56.5733 2.94772L59.0912 3.05023L58.5771 1.99655L55.9735 2.09906V2.09649ZM46.3305 5.83792L48.7165 6.53686L49.5734 5.68551L46.3305 5.83792ZM50.9773 5.34399L54.2202 6.63667V5.58313L50.9773 5.34399ZM57.7202 7.53794L58.1882 8.37082L59.724 7.67187L57.7202 7.53794ZM49.8239 8.57314L51.8276 9.71341L52.467 8.82793L49.8239 8.57314ZM40.8268 7.43543L42.323 8.13168V7.07813L40.8268 7.43543ZM61.2201 10.2231L62.9669 11.0219L64.0742 9.71341L61.2201 10.2231ZM5.46469 10.3256L15.3582 17.1439L15.7009 16.7025L5.46469 10.3256ZM18.2188 11.0219L19.069 11.8049L21.2046 11.261L18.2188 11.0219ZM3.45432 16.4475L6.09741 17.1439L4.94397 15.7487L3.44775 16.4475H3.45432ZM7.21136 19.3377L10.9684 20.7329L9.34695 19.4402L7.21136 19.3377ZM20.8618 18.2842L24.5728 19.2354L22.9513 17.9427L20.8618 18.2815V18.2842ZM12.201 22.2306L15.7009 23.8281L14.2047 22.4671L17.1049 21.5317L12.201 22.2306ZM39.9765 30.9879L43.8588 31.939L44.5838 31.3427L39.9765 30.9852V30.9879ZM56.2306 18.9804L53.9698 20.7329L57.0809 19.6794L62.9669 21.0746L56.2306 18.9831V18.9804ZM50.9839 17.4854L55.3341 17.6903L54.2268 17.4854H50.9839Z" fill="#292929"/>
</g>
<path d="M12.0437 4.00098L12.1333 5.64653L13.2188 6.44494L12.1333 5.99267V8.74739L12.9144 9.63851L12 8.93288L12.1781 10.3251V14.6393L12.1333 26.0454L12.4607 26.6821L12.1333 27.0598L12.1781 27.8955L12.3262 28.3841L12.6307 28.8727L13.3521 29.9991H16.7501L16.7053 27.8573L14.6605 26.8055L15.7461 27.3314L16.6605 27.7339V26.2796V26.1926V25.8273L16.7501 17.3615H22L21.9552 13.6793L16.7501 13.7538L16.7053 12.572L16.5123 11.941V11.3778L16.7501 10.9265L16.6605 8.24064L16.5112 7.98628L16.6157 7.71377L17.969 7.75107L16.162 4.66936L15.5302 4.76208L15.0695 4.59475L15.4854 4.0316L13.6335 4.00098L13.8943 4.415L12.9133 4.00098H12.0437ZM12.1333 28.1489L12.2229 28.496L12.6318 29.0219L13.2188 30H12L12.1781 29.7275L12.1333 29.1271V28.1489ZM15.7473 4.00098L15.4865 4.30407L15.4417 4.52687H15.7921L16.0299 4.45231L16.3791 4.00098H15.7473ZM16.5123 4.00098L16.1631 4.45231L16.3343 4.76115L18.1413 7.71283L19.7323 7.75009L23.5393 7.75005L24 7.71279V4.17881L23.8438 4.03058L23.413 4L16.5123 4.00098ZM17.7542 4.86727L18.5124 5.43046H18.2298L17.8357 5.2325L17.5083 4.86727H17.7542ZM22.996 7.42305L20.7134 7.46039L20.78 7.22518L22.996 7.42305ZM14.1333 6.51954L14.5273 6.79201L14.1114 6.8972L13.8059 6.73659L13.7679 6.51954H14.1333ZM15.5313 6.93352L16.2079 7.31697L15.8357 7.80556L15.0706 7.57034L15.7921 7.60765L15.9851 7.27967L15.5313 6.93352ZM13.8955 14.5331L13.8507 14.7502L13.4785 14.6383L13.5003 14.2788L13.8955 14.5331ZM13.8507 17.2314V17.5039L13.4417 17.3615L13.4785 17.0517L13.8507 17.2314ZM14.6157 17.8501L14.3113 17.9925L14.2665 17.6521L14.6157 17.8501ZM13.3521 23.9026L14.0287 24.286L14.7203 24.614L15.1591 24.8492L16.5353 25.901L15.2039 25.1025L15.3153 25.5166L15.3969 25.8264L16.162 26.8036L15.2924 25.9679L14.7639 26.7663L14.9868 26.2213L15.2912 25.6954L14.8524 25.2068L14.6962 24.7182L14.0264 24.4275L13.2165 23.9762V23.7037L13.3521 23.9026ZM14.3113 27.405L14.2217 27.6957L15.8346 27.82L14.1769 27.7827L13.5003 27.733L13.9839 27.6584L14.2217 27.3668L14.5273 27.0579L14.3113 27.405ZM13.8507 28.5314L13.3521 29.1624L13.2177 29.5764V29.1624L13.4406 28.7666L14.0276 28.147L13.8507 28.5314ZM16.2527 28.3832L15.9472 28.6002L15.7461 28.7675V28.4205L16.0735 28.1852L16.2527 28.3832ZM13.0477 26.9537L13.3521 27.1335L13.0029 27.208L13.0477 26.9537Z" fill="white"/>
</svg>
