<svg width="198" height="36" viewBox="0 0 198 36" fill="none" xmlns="http://www.w3.org/2000/svg">
<path d="M0.0580706 0.187822L0.17727 2.44874L1.62141 3.54571L0.17727 2.92432V6.70917L1.21644 7.93354L0 6.96403L0.236869 8.87682V14.8044L0.17727 30.4758L0.612803 31.3507L0.17727 31.8697L0.236869 33.0178L0.434005 33.6892L0.838974 34.3605L1.79868 35.908H6.31905L6.25945 32.9653L3.53928 31.5202L4.98341 32.2427L6.19985 32.7958V30.7976V30.6781V30.1762L6.31905 18.5445H11.1863L11.1267 13.4854L6.31905 13.5878L6.25945 11.9641L6.00271 11.097V10.3232L6.31905 9.70316L6.19985 6.01293L6.00119 5.66345L6.14025 5.28903L7.94045 5.34028L5.53662 1.10615L4.69612 1.23354L4.08331 1.00364L4.63652 0.229902L2.17308 0.187822L2.51998 0.756675L1.21491 0.187822H0.0580706ZM0.17727 33.366L0.296468 33.8429L0.840502 34.5654L1.62141 35.9094H0L0.236869 35.5349L0.17727 34.7099V33.366ZM4.98494 0.187822L4.63804 0.604263L4.57844 0.910371H5.04454L5.36088 0.807929L5.82544 0.187822H4.98494ZM6.00271 0.187822L5.53814 0.807929L5.76584 1.23226L8.16968 5.28775L10.2862 5.33894H12.6901L13.3029 5.28775V0.432221L13.095 0.228555L12.522 0.186539H6.00271V0.187822ZM7.65468 1.37806L8.66329 2.15187H8.28735L7.76318 1.87989L7.32765 1.37806H7.65468ZM11.9672 4.88965L11.5913 4.94091L11.6799 4.61773L11.9672 4.88965ZM2.83784 3.64822L3.36201 4.02258L2.8088 4.1671L2.40231 3.94644L2.35188 3.64822H2.83631H2.83784ZM4.69764 4.21701L5.59774 4.74385L5.10261 5.41514L4.08484 5.09197L5.04454 5.14322L5.30128 4.69259L4.69764 4.21573V4.21701ZM2.52151 14.6585L2.46191 14.9567L1.96678 14.803L1.99581 14.3091L2.51998 14.6585H2.52151ZM2.46191 18.3659V18.7403L1.91787 18.5445L1.96678 18.1189L2.46191 18.3659ZM3.47968 19.2159L3.07471 19.4116L3.01511 18.9439L3.47968 19.2159ZM1.79868 27.5317L2.69878 28.0585L3.61874 28.5091L4.20251 28.8323L6.03328 30.2774L4.26211 29.1804L4.41034 29.7493L4.51885 30.175L5.53662 31.5176L4.37978 30.3694L3.67681 31.4664L3.97328 30.7175L4.37825 29.995L3.79449 29.3237L3.58665 28.6523L2.69572 28.2529L1.61835 27.6329V27.2585L1.79715 27.5304L1.79868 27.5317ZM3.07471 32.3439L2.95551 32.7433L5.10108 32.9141L2.89591 32.8628L1.99581 32.7945L2.63918 32.692L2.95551 32.2914L3.36201 31.867L3.07471 32.3426V32.3439ZM2.46191 33.8915L1.79868 34.7585L1.61988 35.3274V34.7585L1.91634 34.2147L2.69725 33.3634L2.46038 33.8901L2.46191 33.8915ZM5.65734 33.6878L5.25085 33.986L4.98341 34.216V33.7391L5.41895 33.4159L5.65582 33.6878H5.65734ZM1.39371 31.7238L1.79868 31.9708L1.33411 32.0733L1.39371 31.7238ZM17.9676 0.00654297V1.05226L18.8677 1.67237L18.9166 1.97841L18.3145 2.19914L18.5713 2.49736V3.24621L17.9692 3.19496V3.77298L18.8693 4.12111L17.9692 4.41933L18.0578 7.25962L18.7791 6.65529L19.3323 4.16447L19.994 1.5791L20.1422 1.05226L19.2712 0.303414L19.1229 0.0564492L17.9661 0.00526003L17.9676 0.00654297ZM25.6437 0.00654297H22.0234L21.1524 0.58457L20.8651 1.45164L20.3409 2.79558L19.8473 4.24068L19.6502 5.21019L20.402 5.90779L19.5906 5.33894L19.1841 6.73284L18.9762 7.25962L18.8677 7.77857L23.8527 9.49558L23.764 8.35659L23.5562 8.22913L24.0513 7.87972L24.1705 7.08097L23.9627 6.48582L23.2414 6.33212L23.4492 5.46505L23.5577 6.16264L24.1125 6.38337L24.3096 5.20891L29.4428 5.16683L29.9669 4.93693L30.0449 5.20891L31.3805 5.16683V2.84549L30.7784 2.7943L31.3805 2.54727V0.00391295H28.2844L29.6995 2.32526L28.1652 0.224642L27.7602 1.39911L28.0766 0.00391295H26.1969L21.2716 6.83266L21.212 6.65401L22.083 5.11564L21.6185 4.34184L22.2313 4.93693L25.6437 0.00526003V0.00654297ZM18.8677 7.95721L23.8527 9.67558L23.9612 9.9738V12.7628L23.5547 12.9415L24.0498 13.1122L24.1094 13.3842L27.9665 13.5116L28.075 13.8098L26.5423 15.008L25.9891 15.3062L24.5144 16.0038L21.0622 18.019L19.4408 19.1409L24.574 16.055L25.5826 15.8763L25.9891 15.3574L26.6615 15.3062L26.7501 14.9581L27.1566 15.0093L28.373 13.8611L28.2248 13.4617H29.9654L29.6491 13.8112L29.3526 14.1344L29.0959 14.7807L30.1045 13.8112L30.3123 13.5642L30.569 13.3435L30.7769 13.6916L30.3704 14.1344L30.3108 14.4838L31.2705 13.6417L31.379 14.3892L30.5094 14.9593L31.1818 14.832L31.2705 16.3545L30.8655 16.5753L31.2705 16.9746L31.1818 17.4502L30.3108 16.9234L31.2705 17.8509V18.5485H24.169L24.1094 22.3832L23.4966 22.4857L22.893 22.3832L23.4966 23.0808L24.1094 23.7009L23.7029 24.0504L23.9 24.3985L23.2979 24.5771L22.6255 25.0448L21.675 25.971L23.2383 24.7466L23.9 24.5758L23.7625 25.146L24.0498 25.4442L23.9016 27.7144L23.4462 27.9863L24.0498 28.412L24.1094 30.6571H27.6701L27.1551 31.5242L27.8168 30.8266L28.4204 31.4729L27.8764 30.6557H31.3775V32.2204L29.8447 31.9485L31.269 32.3991L29.8447 32.918L31.4371 32.4503V35.8857H29.1524L19.3812 30.4272L28.9461 35.8857H26.6615L26.0487 35.1881V35.9369L24.3677 35.8857L24.1109 35.707L23.3591 35.9369H17.9096L17.9692 28.9296L18.2565 28.8113L17.9096 28.6326V28.1137L18.3161 27.935L17.9096 27.4673V26.1405L18.2565 25.791L18.5239 25.1447H17.9707L18.7822 24.5246L17.9707 23.9545L18.5239 23.6996L17.9111 22.7301V19.6441L18.3176 19.363L18.0608 19.0227L18.9212 18.7166L17.9722 18.4447L17.9126 17.2282L18.3191 17.0495L17.9126 16.6501V12.4659L18.6645 11.9904L18.2595 11.5476L18.8723 10.85L17.9722 11.2415V9.32874L18.5743 9.05682V8.47879L18.8708 7.95984L18.8677 7.95721ZM29.6995 14.5561L29.3526 14.6073L28.2248 16.0524L29.6491 14.5561H29.6995ZM29.9669 14.9554L29.1555 16.0524L29.6995 15.9499L29.9669 14.9554ZM29.0363 16.4005L28.6313 16.9694L29.0363 16.8761V16.4005ZM24.2592 15.4744L24.9805 15.431L25.387 14.5561L24.2592 15.4744ZM20.807 24.3932V24.8688L21.4091 24.5706L20.8651 24.3407L20.8055 24.3919L20.807 24.3932ZM22.2313 25.2695L21.8156 25.9671L22.7447 25.2695H22.2313ZM19.8473 26.7146L20.4601 27.7603L18.7791 27.2335L21.5589 28.6287L20.2523 27.0128L19.0649 25.1421L19.8458 26.7146H19.8473ZM21.6185 14.606L22.1717 14.8267L22.488 14.4273L21.6185 14.606ZM43.8299 5.03943L37.2037 1.28088V0.132656L39.0833 0.183909L40.8239 1.22963L40.4174 0.702792L40.9615 0.185192H45.1059L52.0102 5.78822L51.8024 5.43881L45.3733 0.183909L48.6773 0.252225C50.1015 0.438774 51.13 0.881513 51.7428 1.5791L51.5457 3.11747L52.0102 1.74851C52.5848 2.13081 53.0295 2.66686 53.3352 3.34737L53.4238 6.58698L52.267 5.60957L51.9506 3.69678L51.6832 3.86625L52.1478 5.54125L52.4748 6.11011L53.4238 6.85896L53.2863 16.595L52.8706 16.7736L53.543 17.1217L53.4834 17.5211L52.9592 17.6407L53.4834 17.9218V18.7889L53.0188 19.137L53.4834 19.7584V27.0365L52.267 26.5596L53.4834 27.6053V30.3694L52.5543 30.6505V31.1182L52.9592 30.6505L53.543 30.5993L53.1671 31.1182V31.645L52.6139 31.6963L51.3974 31.4664L50.0022 30.7175L50.615 29.3237H51.2767L50.5248 28.8047L50.8717 27.0864L50.3277 28.5315L49.2488 27.5278H47.2515V19.8333L47.8643 19.6625L47.0528 19.3144L47.1017 19.1357L48.121 19.0845L48.1806 18.7863L47.5968 18.9649L47.1017 18.9137L47.0528 17.2387L47.9132 16.9405L48.4679 16.3204L47.716 16.6436L47.1032 16.8984V13.9057L47.8062 13.379L47.1934 12.8101V9.6979L47.8062 9.39968L47.1032 9.34843V7.33319L48.7353 8.25146L47.1032 7.10329L47.1919 6.35444L47.0543 5.7081C46.7777 5.29165 46.2826 5.04471 45.5705 4.95932L43.8299 5.03546V5.03943ZM39.4287 0.183909L40.2998 0.752762L40.8239 0.183909H39.4287ZM37.2037 1.67102L43.5135 5.08934L43.4249 6.80636L42.9695 6.93382L43.4249 7.33319V7.77594H43.0184L43.4249 8.30271L43.3745 9.468H42.563L42.8503 9.74916L42.7021 10.2168L41.9502 10.0474L41.3664 10.268H40.882L40.2096 11.2376L40.9615 10.6175L41.8921 10.448L42.2971 10.6688L42.7036 11.0681H43.5151L43.4264 11.5437L42.1611 11.7131L42.7632 12.1638L43.5151 11.9339L43.4264 12.9113H42.5065L42.0404 12.3845L41.2289 11.9851L40.0125 12.5119L39.6365 13.2607L40.4174 12.5119L41.2289 12.282L41.7729 12.8088L42.8503 13.4289V13.8282L41.9502 14.4746L42.3567 14.8227L43.3164 14.5245L43.4249 14.7544V15.452L42.7036 15.724L42.1 16.3703L42.8518 16.0721L43.4264 16.0208L43.2293 16.7184L40.7659 18.0873L43.3775 17.0666L43.4279 17.9849L42.3001 18.6562L41.371 19.9318L43.3194 18.4355L43.4279 18.3843L43.3775 18.9623L42.4484 19.405L41.6965 20.4087L43.3775 19.3118L43.4279 19.8307L42.4484 20.5782L43.4279 20.1026L43.3775 20.7582L43.0215 21.0813L43.4279 21.1496V22.0759L43.0215 22.2453L42.8534 22.9166L43.4279 23.0953V25.0593L42.8534 25.6886L43.4279 26.1562V27.0824L42.2405 25.858L42.9725 27.2532L43.5166 27.8733L43.5762 28.5275L42.5676 27.5238L43.4279 28.9177L42.7066 29.4445L43.1712 30.0147L43.4279 30.414L43.5762 30.8647L46.3254 30.8134L47.0574 30.0646L47.522 29.4445L48.5306 28.697L47.4028 28.9689V27.7787H49.2519L50.4087 28.8757L50.0633 29.275L50.3308 29.4445L49.8647 30.6439L48.2723 29.6232L49.3405 30.5415L50.6165 31.289L51.6847 31.6897L52.7621 31.9616L53.2267 32.3873L52.6139 33.0585L50.7342 32.5567L48.934 32.2585L46.7884 31.4598L48.934 32.4805L50.615 32.7866L52.4748 33.4067L50.9313 34.903L48.5275 35.6505L37.3412 35.7701L37.2816 29.5457L37.7462 29.4432L37.1425 28.6957L37.2816 23.6102L37.549 23.3896L37.3412 22.6407L37.2816 16.3651L37.6575 16.0668L37.3412 15.6162L37.2816 5.88021L37.549 5.6503L37.2021 4.85155V1.66313L37.2037 1.67102ZM52.0897 5.71073L52.2089 9.11987L52.9608 11.4675L52.4763 8.9504L52.4167 5.83819L52.0897 5.71073ZM51.1407 10.1498L51.0811 10.6175H51.6053L51.7428 10.0986L51.2782 10.1498H51.1407ZM48.5886 8.03207L49.3405 8.47481L49.4597 8.25409L48.7873 7.67606L48.5902 8.03342L48.5886 8.03207ZM51.6053 20.5821L52.0102 20.4127L50.4072 20.5059L49.5957 20.7608L51.6037 20.5821H51.6053ZM49.9533 31.3468L48.0049 30.5979L49.8647 31.398L51.3394 31.6963L49.9548 31.3468H49.9533ZM40.8835 24.7138L40.014 24.9437L39.9544 25.5901L40.8835 24.7138ZM41.8921 28.4552L38.8251 29.2041L39.745 29.3237L41.8906 28.4566L41.8921 28.4552ZM38.3605 17.0692L38.5576 17.6906L38.874 17.2899L38.359 17.0692H38.3605ZM38.064 19.0845L38.2718 19.4077L38.6783 18.9649L38.0655 19.0845H38.064ZM59.4746 0.00263002V1.04835L60.3748 1.66839L60.4236 1.9745L59.8215 2.19523L60.0783 2.49345V3.24223L59.4762 3.19105V3.76907L60.3763 4.1172L59.4762 4.41541L59.5648 7.2557L60.2861 6.65138L60.8393 4.16056L61.501 1.57512L61.6493 1.04835L60.7782 0.299501L60.63 0.0525362L59.4731 0.00128294L59.4746 0.00263002ZM67.1507 0.00263002H63.5305L62.6594 0.580657L62.3721 1.44773L61.8479 2.79167L61.3543 4.23677L61.1572 5.20628L61.909 5.90388L61.0976 5.33502L60.6911 6.72887L60.4832 7.2557L60.3748 7.77459L65.3597 9.49167L65.2711 8.35262L65.0632 8.22522L65.5583 7.87575L65.6776 7.07699L65.4697 6.4819L64.7484 6.32821L64.9562 5.46113L65.0647 6.15873L65.6195 6.3794L65.8166 5.20493L70.9498 5.16292L71.474 4.93301L71.5519 5.20493L72.8875 5.16292V2.84157L72.2854 2.79032L72.8875 2.54335V0H69.7914L71.2065 2.32134L69.6722 0.220665L69.2673 1.39513L69.5836 0H67.7039L62.7786 6.82874L62.719 6.65003L63.59 5.11166L63.1255 4.33793L63.7383 4.93301L67.1507 0.00128294V0.00263002ZM60.3748 7.9533L65.3597 9.6716L65.4682 9.96982V12.7589L65.0617 12.9376L65.5568 13.1083L65.6164 13.3802L69.4736 13.5077L69.5821 13.8059L68.0493 15.0041L67.4961 15.3023L66.0214 15.9999L62.5692 18.0151L60.9478 19.137L66.081 16.0511L67.0896 15.8724L67.4961 15.3535L68.1685 15.3023L68.2571 14.9541L68.6636 15.0053L69.8801 13.8572L69.7318 13.4578H71.4724L71.1561 13.8072L70.8596 14.1304L70.6029 14.7768L71.6115 13.8072L71.8193 13.5602L72.0761 13.3396L72.2839 13.6877L71.8774 14.1304L71.8178 14.4799L72.7775 13.6377L72.886 14.3853L72.0165 14.9554L72.6889 14.828L72.7775 16.3506L72.3725 16.5713L72.7775 16.9707L72.6889 17.4463L71.8178 16.9195L72.7775 17.8469V18.5445H65.676L65.6164 22.3793L65.0036 22.4818L64.4 22.3793L65.0036 23.0769L65.6164 23.697L65.2099 24.0464L65.4071 24.3946L64.805 24.5732L64.1326 25.0409L63.182 25.9671L64.7454 24.7427L65.4071 24.5719L65.2695 25.1421L65.5568 25.4403L65.4086 27.7104L64.9532 27.9824L65.5568 28.408L65.6164 30.6531H69.1771L68.6621 31.5202L69.3238 30.8226L69.9274 31.469L69.3834 30.6518H72.8845V32.2165L71.3517 31.9445L72.776 32.3951L71.3517 32.9141L72.9441 32.4464V35.8818H70.6594L60.8882 30.4232L70.4531 35.8818H68.1685L67.5557 35.1842V35.933L65.8747 35.8818L65.618 35.7031L64.8661 35.933H59.4166L59.4762 28.9256L59.7635 28.8074L59.4166 28.6287V28.1098L59.8231 27.9311L59.4166 27.4634V26.1365L59.7635 25.7871L60.0309 25.1407H59.4777L60.2892 24.5207L59.4777 23.9505L60.0309 23.6956L59.4181 22.7261V19.6402L59.8246 19.359L59.5679 19.0188L60.4282 18.7127L59.4792 18.4407L59.4196 17.2242L59.8261 17.0456L59.4196 16.6462V12.462L60.1715 11.9864L59.7665 11.5437L60.3793 10.8461L59.4792 11.2376V9.32482L60.0813 9.05284V8.47481L60.3778 7.95587L60.3748 7.9533ZM71.2065 14.5521L70.8596 14.6033L69.7318 16.0484L71.1561 14.5521H71.2065ZM71.474 14.9515L70.6625 16.0484L71.2065 15.946L71.474 14.9515ZM70.5433 16.3966L70.1383 16.9654L70.5433 16.8721V16.3966ZM65.7662 15.4704L66.4875 15.427L66.894 14.5521L65.7662 15.4704ZM62.314 24.3893V24.8649L62.9161 24.5667L62.3721 24.3368L62.3125 24.388L62.314 24.3893ZM63.7383 25.2656L63.3226 25.9631L64.2518 25.2656H63.7383ZM61.3543 26.7107L61.9671 27.7564L60.2861 27.2296L63.0659 28.6247L61.7593 27.0089L60.5719 25.1381L61.3528 26.7107H61.3543ZM63.1255 14.602L63.6787 14.8227L63.995 14.4234L63.1255 14.602ZM79.1156 7.47637L79.2241 6.90752L79.1156 6.13378L79.1645 5.0368L79.2241 4.76489L78.9674 4.23805V3.54045L79.3143 3.26853L78.9674 3.02157V2.49473L79.7193 2.97032L79.027 1.9246L78.9674 1.57647L80.1838 2.39357L79.1156 0.956364V0.378338L79.432 0.650256L79.571 0.207515L79.8965 0.250878L79.976 0.599003L80.9953 1.2966L80.303 0.208862L80.9067 0.302131L82.2713 1.82472L81.2536 0.252225L82.1827 0.303414L82.47 0.482127L82.3325 0.0814022L84.0135 2.2241L83.9539 1.5265L82.9942 0.132656L84.6156 0.208862L85.0221 0.727809L84.883 0.208862H88.3856L88.8502 0.60035L89.2567 0.208862L90.2744 0.132656H91.4618C92.174 0.218048 92.718 0.387544 93.0848 0.651603L92.3222 0.881505L92.2137 1.12847L93.4897 0.778998C94.3012 1.19545 94.9232 1.82475 95.3694 2.67473L93.8962 2.2241L94.2126 2.62482L95.5788 3.09252L95.4901 5.98271L95.5788 6.7315L95.4901 7.13088L94.9064 7.00342L95.5788 7.65771L95.4901 12.0377V14.5797C95.3511 15.1919 95.2028 15.6517 95.024 15.9407C94.8452 16.2297 94.4006 16.5608 93.6884 16.9444L92.4124 17.3438L93.4301 17.5987C94.3608 17.8286 95.0027 18.3645 95.3694 19.2145L95.429 20.0658V20.661L89.3163 26.5885L89.1084 19.539C89.0687 19.0122 88.6637 18.6969 87.892 18.6207H85.3399V32.0221L85.0236 32.3702L85.3399 32.8891V33.4672L84.6782 32.9403L85.3399 33.8928V35.9593H83.4022L81.3743 34.8111L83.2035 35.9593H81.7197L81.4629 35.4837L81.3147 35.9593H80.4436L80.2465 35.6111L79.9791 35.9593H79.3754V35.4325L78.9705 35.2118V34.7349L79.435 35.0843L79.8996 35.4325L80.2465 34.8636L79.1187 34.3368V34.1161L80.1869 34.5667L79.1187 33.8179L78.9705 33.4185L81.116 34.2186L81.9275 34.3881L79.2272 33.1203V32.6697L80.6515 32.9417C80.2862 32.7289 79.7911 32.4989 79.1676 32.2703L79.1187 31.846L80.5032 32.449L82.9957 33.588L79.5741 31.7514L79.6337 31.3271L81.058 31.9734L80.653 31.4046L80.9999 30.5283L79.9011 30.129V29.6613L80.5934 29.8307L81.7808 30.3575L81.6616 29.9582L80.653 29.5588V29.032L81.2566 29.2619L81.8694 29.4826L81.7212 29.0819L81.058 28.785L80.653 28.7338C80.4161 27.7721 80.6438 27.3045 81.3147 27.3399L81.3743 27.1862L82.1262 27.4161H82.5923L81.3758 26.6673L81.2566 26.3178L81.1176 25.7398L82.334 26.7684L82.0666 26.1904L80.2465 24.8714L80.0983 25.2721L80.3061 25.4416V26.1392L79.7223 26.1904L79.5741 26.4203L78.9705 26.3691L79.0301 25.8423L79.2272 25.6216L78.9705 25.4429V24.2264L79.7819 24.6507L78.9705 23.827V23.207V22.0325H79.435L80.3856 21.7605L81.1176 21.2337L80.3856 21.5819L79.435 21.8538H78.9705L79.0301 19.966V17.5251L79.1187 12.6866L79.2272 12.2702L79.0301 12.0403V10.2457L79.2272 9.84634L78.9705 9.45485L79.1187 7.48163L79.1156 7.47637ZM78.9674 26.9314L79.6291 27.0075L79.5206 26.7606L78.9674 26.8801V26.9314ZM80.303 28.7259L79.6306 28.7771L79.3143 28.8533L80.0356 28.9466L80.3825 28.9033L80.303 28.7246V28.7259ZM79.027 27.8588V27.4582L79.5206 27.2283L79.3724 27.5777L79.027 27.8588ZM80.5888 26.4137L80.2419 26.8302L80.1823 27.0089L81.1114 26.8814L80.5873 26.4137H80.5888ZM89.3132 26.7619L95.426 20.8015V33.3607L95.0195 33.7102L95.426 34.0333V35.9554L91.1333 35.9041L90.846 35.4272L90.5892 34.9766H91.1333L90.6488 34.2107L91.1929 33.81L90.7283 33.0113L90.4716 33.8862L90.0666 34.5575L90.5908 34.8045L90.1247 35.2551L90.7283 35.9527H89.3728L89.3132 26.7606V26.7619ZM89.7197 0.555703V1.04835L90.3814 0.428244L89.7197 0.555703ZM90.1247 1.87334L89.5119 2.0008L89.3743 2.44348L89.5715 2.14526L90.1247 1.87334ZM88.2358 2.49345L88.5919 3.08854L88.9082 2.56959L88.2358 2.49345ZM91.8072 1.04835L91.9463 1.47396L92.53 1.52522L92.4108 0.99838L91.8072 1.04963V1.04835ZM89.5715 2.91906L90.1247 3.26853L90.3233 2.84286L89.5715 2.91906ZM90.6488 2.6721L91.4007 3.31844V2.79167L90.6488 2.6721ZM92.2122 3.76907L92.3207 4.18551L92.6768 3.83604L92.2122 3.76907ZM90.3814 4.28667L90.846 4.85681L90.9942 4.41407L90.3814 4.28667ZM88.2954 3.71782L88.6423 4.06594V3.53917L88.2954 3.71782ZM93.0236 5.11166L93.4286 5.51104L93.6854 4.85681L93.0236 5.11166ZM80.0967 5.16292L82.3905 8.57206L82.47 8.35133L80.0967 5.16292ZM83.0538 5.51104L83.2509 5.90253L83.746 5.63061L83.0538 5.51104ZM79.6306 8.22387L80.2434 8.57206L79.976 7.87446L79.6291 8.22387H79.6306ZM80.5017 9.66897L81.3728 10.3666L80.9968 9.72022L80.5017 9.66897ZM83.6666 9.1422L84.5269 9.61778L84.151 8.97144L83.6666 9.14085V9.1422ZM81.6585 11.1154L82.47 11.9142L82.1231 11.2336L82.7955 10.7659L81.6585 11.1154ZM88.0983 15.4941L88.9984 15.9696L89.1665 15.6714L88.0983 15.4927V15.4941ZM91.8668 9.49032L91.3426 10.3666L92.0639 9.83979L93.4286 10.5374L91.8668 9.49167V9.49032ZM90.6504 8.74282L91.659 8.84526L91.4022 8.74282H90.6504ZM85.0817 4.98427V13.8282L84.9334 14.2276L85.427 13.8282H88.0387C88.7111 13.7941 89.1558 13.5051 89.3743 12.9612V5.98008C89.3346 5.4362 88.9587 5.1051 88.2374 4.98555H85.0817V4.98427ZM91.3426 27.6289L92.7379 28.9466L92.6783 28.3765L91.3426 27.6289ZM101.538 35.9527L101.795 34.4301L102.022 33.4356L102.29 32.0667L102.547 30.8423L103.358 31.9393L102.606 29.924L103.219 26.9813L103.792 24.3196L103.971 22.8995L110.371 20.5782L107.622 35.9514H101.539L101.538 35.9527ZM104.198 22.5264L110.223 20.5019L111.47 11.6843L113.151 19.3538L118.136 17.6368L117.64 15.0001L117.234 13.7087L117.156 12.6801L116.72 11.9142L116.484 10.2392L116.227 8.74282L116.048 7.2294L115.91 6.72758L115.298 7.17815L114.891 7.60383L114.98 8.09648L114.723 9.09094L114.318 8.4446L114.634 7.22812L115.07 6.53053L115.733 5.65428L114.634 0.271918H110.313L109.304 1.76827L109.472 0.271918L107.712 0.203602L106.871 7.17552L107.039 7.66952L106.633 8.09385L106.286 10.3127L105.702 12.328L106.286 12.5579L105.534 13.4L104.198 22.5238V22.5264ZM115.732 6.00504L115.82 6.58306L115.237 7.0258L114.801 7.37521L115.068 6.80507L115.732 6.00632V6.00504ZM113.151 19.5075L118.224 17.7143L121.904 35.8765H116.048L113.151 19.5075ZM104.95 35.527L104.694 35.1526L104.032 35.4508L104.952 35.527H104.95ZM104.782 34.0819L104.694 33.232L104.11 33.4356L104.198 34.1582L104.782 34.0819ZM106.375 32.7893L106.631 32.2874L105.97 32.2112L105.702 32.5095L106.375 32.7905V32.7893ZM105.039 32.6356L104.782 32.0667L104.377 32.2874L104.466 32.6369H105.039V32.6356ZM104.634 30.4929V29.8465L104.11 29.7703V30.3484L104.634 30.4929ZM104.782 27.1337L104.377 26.6069L104.03 27.1337H104.782ZM105.445 21.5214L105.881 21.3769L105.97 21.8012L105.534 21.725L105.445 21.5214ZM105.445 17.4909L105.97 17.219V17.7129L105.534 17.8667L105.445 17.4922V17.4909ZM114.318 21.6751L114.891 21.0288L114.486 20.9526L114.318 21.6751ZM106.375 14.2775L107.127 13.3343L106.631 14.4221L106.107 14.6257L106.375 14.2762V14.2775ZM106.543 10.8172L106.87 10.8855L106.722 11.2599L106.543 10.8172ZM107.215 12.4068L107.036 11.9811L107.53 12.0324L107.214 12.4068H107.215ZM107.967 11.2586L113.299 10.4677H113.734L108.057 11.4123L107.969 11.2586H107.967ZM108.808 5.88418L108.719 5.35735L109.212 5.30609L108.808 5.88418ZM109.648 5.73042V5.16163L110.143 5.30609L109.648 5.73042ZM110.459 5.95115L111.884 4.01212V4.50477L110.459 5.94987V5.95115ZM111.3 8.09385L113.071 5.80663L113.151 6.00241L111.301 8.09385H111.3ZM113.386 5.30481L114.573 3.51024L114.722 3.85971L113.386 5.30481ZM114.978 10.611L114.631 10.0421L115.383 10.2378L114.977 10.6122L114.978 10.611ZM114.978 12.031V11.4609L115.385 11.7591L114.978 12.031ZM115.473 14.472L114.801 12.8311L115.296 13.0518L115.475 14.472H115.473ZM116.571 14.2L116.482 13.4775L116.977 13.9018L116.571 14.2ZM116.135 12.1848V11.5384L116.571 12.1086L116.135 12.1848ZM116.135 31.4098L115.73 31.2141L116.047 31.7843L116.135 31.4098ZM107.154 21.997L109.439 21.7763L111.15 21.8012L113.554 21.725L115.938 21.7763L116.254 26.4111L113.673 26.5294L110.835 26.4781L108.896 26.6056L106.106 26.3848L107.154 21.997ZM131.373 35.7464L136.646 35.7977L136.586 31.9892L136.358 31.5885L136.586 30.9685V11.1141V5.38365L137.754 5.33239L138.91 5.28114H140.76V0.273201L140.413 0.222012L139.482 0.902481L139.918 0.222012H131.985L133.201 2.22018L131.638 0.179932H129.689L129.313 0.503103L128.967 0.0774893L126.534 0.222012L126.474 5.43483L127.631 5.33239L128.352 5.38365L130.36 5.33239L131.309 4.98292L131.685 4.0909L131.864 3.36835L131.685 4.95797L132.09 5.08543L131.635 5.60431V6.13115L131.862 6.8537L131.487 7.04941L131.427 7.62744L132.179 8.00186L132.15 9.66897L131.862 8.30008L131.25 8.14638L131.369 8.99639L131.25 9.66769L131.428 10.0671L131.201 10.6359V11.5371L131.685 11.7328L131.201 12.4042V16.9365L131.922 18.1347L132.179 19.028L132.585 19.3341L132.179 19.4024L132.09 19.8018L132.703 20.5506L132.179 20.7975L132.416 21.2731L134.037 22.1494L135.57 22.9402L132.958 21.75V22.3188L132.237 22.2426L131.485 21.8L131.248 22.1494L131.308 26.4348L131.921 26.4768L132.296 26.0603L132.701 26.1536L133.018 26.3835H132.355L132.474 26.6817L133.018 26.9537V27.5737L132.523 27.0036L131.861 26.9012L132.04 27.3517L132.416 27.5725L131.684 27.7761L131.516 26.8998H131.308L131.427 32.9285L131.367 35.7425L131.373 35.7464ZM131.146 20.8488L131.254 21.4268H131.748V21.0025L131.146 20.8488ZM128.099 3.71519L128.039 4.03836L127.573 4.18288L127.376 3.71519H128.097H128.099ZM140.038 1.99682L139.87 2.51577L139.543 2.83894L139.691 1.89567L140.038 1.99817V1.99682ZM136.705 2.16765L136.765 2.61821L136.19 2.83894L136.161 2.32134L136.705 2.16765ZM135.321 2.69442L136.044 3.71519L135.263 3.13716L135.322 2.69577L135.321 2.69442ZM135.321 2.03891L134.827 2.46452L134.768 1.94557L135.321 2.03891ZM133.145 6.95351L132.908 7.66817L132.711 6.69865L133.146 6.95351H133.145ZM133.492 8.56943L133.264 9.53895L132.828 9.13957L132.769 7.89807L133.49 8.56943H133.492ZM134.768 7.09803L134.708 7.47246L134.153 7.27668V6.95351L134.766 7.09803H134.768ZM132.246 14.1725L132.483 14.4956L134.153 15.6438L132.591 14.8188L132.364 14.6493L132.047 14.4956V14.0279L132.096 12.8798L132.244 14.1725H132.246ZM132.425 11.0603L132.188 11.7828L132.099 10.8132L132.05 10.1577L132.426 11.0589L132.425 11.0603ZM134.305 10.8566L134.424 11.2573L133.87 10.8566H134.306H134.305ZM134.364 12.4042L134.769 12.7274L134.422 13.0256L134.106 12.4554L134.363 12.4042H134.364ZM134.185 18.1859L134.155 18.5603L133.699 18.2621L134.184 18.1859H134.185ZM133.314 23.1951L133.206 23.6116L132.533 23.9176L132.83 24.0871L132.86 24.3853L133.148 24.6665L132.594 25.0146L133.207 25.5848L132.188 25.1092L132.099 24.7085L132.594 24.5391L132.159 24.1909L132.099 23.919L132.594 23.6641L132.714 23.094L133.317 23.1964L133.314 23.1951ZM132.423 15.2694L132.591 15.7962L132.364 15.745L132.423 15.2694ZM136.707 1.74069L136.36 1.84313V1.47005L136.707 1.74197V1.74069ZM134.65 3.93457L134.185 4.23279L134.046 3.83213L134.65 3.93457ZM149.68 35.8463L148.553 35.7701L148.296 35.4719L148.207 34.8006L149.682 35.8463H149.68ZM146.031 35.8463V33.6012L146.644 33.6773L146.12 33.0822L146.208 30.3865H146.554L146.12 29.4169V22.6144L146.554 22.7681L146.901 23.2188L147.247 23.4395L146.555 24.1883L147.159 24.3328L147.683 23.4408L147.336 22.9902L147.593 22.914L146.642 22.4713L147.078 21.9445L148.028 22.395L148.464 22.5396L148.811 22.4713L148.554 22.0968L149.158 21.7224L147.773 21.7986L147.426 21.1943L146.645 21.7211L146.813 21.1943L147.862 20.8212L147.338 20.4468L146.121 18.7284V16.5858L147.079 15.5401L148.988 15.8369L147.425 15.3193L148.553 13.5248L146.208 16.143L146.029 0.965537H147.335L148.294 1.33996L148.809 1.8668L148.553 1.19544L149.245 1.04174L148.374 0.965537L147.859 0.667319H146.118V0.369101L148.115 0.292958L148.551 0.446654L149.075 0.370448L149.511 0.668666L149.946 0.447937L150.371 0.668666L150.638 0.370448L151.945 0.446654L151.074 0.744872L150.55 1.27165L150.807 1.56986L151.331 1.33996L152.023 1.19544V1.41617L151.419 1.71439V1.94429L151.944 1.79059L152.023 5.15766L151.598 5.37839L151.945 5.45459L152.025 22.018L150.461 19.7059L151.945 22.6906V25.9054H150.729L150.373 26.059L151.076 26.5018L151.768 26.6555V27.2506L151.679 27.7774V28.295L151.858 28.4487L150.027 29.8689L148.99 29.7926L148.554 30.3195L148.643 30.5401L149.158 30.3865L148.643 30.9908L149.77 30.3865L151.768 28.7456L151.856 29.7914L151.6 29.9451L151.679 30.2433L151.947 30.6938L152.026 32.2585L151.601 32.4122V32.6329L152.026 32.7866L151.858 34.2737L150.81 33.6787L152.026 35.2512L150.551 34.35L151.422 36L149.77 34.2068L148.296 31.8854L149.424 34.3513L148.296 32.9312L148.553 34.2737L149.859 35.397L148.375 34.7257L147.425 33.9782L146.989 34.1319L147.593 34.9556L146.642 35.3983V35.8489H146.029L146.031 35.8463ZM149.246 3.06622L148.99 2.83631L148.03 2.69179L147.941 2.98873L149.248 3.06487L149.246 3.06622ZM148.03 3.73751H148.554L147.862 3.4314L148.03 3.73751ZM146.991 4.11194L147.338 4.25646V3.6613L146.991 4.11194ZM149.158 17.709L149.246 17.5645L148.731 17.4883L149.156 17.709H149.158ZM148.03 18.9583L149.246 18.8822L148.03 18.806V18.9597V18.9583ZM149.593 27.6999L150.987 28.1505L149.682 27.4792L149.593 27.6999ZM149.246 32.1035L149.593 32.5541L150.117 32.7078L149.515 31.7383L149.248 32.1035H149.246ZM165.414 4.90145C164.673 4.98685 164.177 5.23385 163.901 5.6503L163.762 6.3216L163.841 7.07045L162.22 8.21861L163.841 7.30035V9.31559L163.149 9.36684L163.762 9.66506V12.8022L163.149 13.3711L163.841 13.8979V16.9076L163.238 16.6606L162.486 16.3375L163.03 16.9575L163.901 17.2557L163.841 18.9558L163.357 19.0069L162.773 18.8283L162.833 19.1252L163.841 19.1764L163.901 19.3459L163.089 19.7033L163.702 19.8727V27.6197H161.703L160.626 28.6142L160.082 27.1691L160.429 28.8954L159.648 29.4143H160.34L160.944 30.8345L159.529 31.582L158.312 31.8026L157.759 31.7606V31.2338L157.383 30.707L157.967 30.7582L158.373 31.2338V30.7582L157.443 30.4863V27.6972L158.659 26.6515L157.443 27.1271V19.7978L157.909 19.1778L157.443 18.8296V17.9363L157.967 17.6551L157.443 17.5369L157.383 17.1362L158.056 16.7881L157.64 16.6094L157.501 6.82214L158.451 6.0484L158.777 5.47955L159.243 3.80454L158.975 3.63507L158.659 5.54786L157.502 6.5515L157.591 3.2856C157.897 2.60509 158.343 2.06122 158.916 1.66185L159.38 3.06487L159.183 1.49237C159.816 0.794786 160.855 0.353338 162.279 0.174672L165.612 0.0985294L159.124 5.37839L158.916 5.72651L165.869 0.0971824L169.726 0.395401L170.281 0.922238L169.875 1.44112L170.596 0.574049C171.655 0.82103 172.555 1.76432 173.285 3.40517L167.144 4.97766L165.414 4.90145ZM169.875 0.395401L170.281 0.819732L170.538 0.572766L169.875 0.394118V0.395401ZM167.411 30.9894C171.852 34.237 171.931 35.887 167.639 35.9212L162.426 35.7938L160.022 35.0463L158.45 33.5329L160.339 32.9036L162.02 32.6054L164.165 31.5846L162.02 32.3846L160.219 32.6828L158.311 33.1755L157.698 32.5042L158.163 32.0878L159.241 31.8066L160.339 31.4072L161.615 30.6676L162.683 29.7152L161.09 30.7609L160.626 29.5443L160.893 29.3657L160.537 28.9663L161.705 27.8693H163.554V29.0675L162.426 28.7955L163.435 29.5443L163.899 30.1907L164.651 30.9395L167.411 30.9908V30.9894ZM158.509 5.77776L158.45 8.91493L157.965 11.457L158.717 9.0844L158.836 5.64902L158.509 5.77642V5.77776ZM159.646 10.1393L159.182 10.0881L159.319 10.607H159.874L159.814 10.1393H159.646ZM162.159 7.64719L161.497 8.21733L161.616 8.43806L162.368 7.99532L162.16 7.64585L162.159 7.64719ZM161.347 20.7936L160.536 20.5467L158.914 20.4442L159.319 20.6229L161.347 20.7923V20.7936ZM159.587 31.8053L161.09 31.507L162.95 30.7083L161.002 31.4571L159.587 31.8053ZM165.117 0.319194H165.385L168.689 0.395401C170.113 0.58195 171.141 1.01552 171.754 1.7131L171.557 3.26064L172.022 1.89175C172.596 2.27405 173.041 2.80218 173.347 3.48137L173.435 6.72098L171.962 3.8295L172.475 5.00396L173.435 6.99424L173.287 16.7381L172.891 16.9076L173.119 17.2571L173.495 17.6565L172.971 17.7839L173.495 18.0558L173.435 19.5784L173.03 19.2802L173.495 19.9016V27.1717L173.347 27.5462L173.495 27.7498V30.5139L172.564 30.7858V31.2614L172.971 30.7858L173.554 30.7346L173.178 31.2614V31.7803L172.625 31.8316L171.409 31.6108L170.015 30.862L167.266 27.6736V19.9791L170.886 21.8236L167.069 19.451L167.118 19.2802V19.0503L167.069 17.3845L167.118 17.0351V14.0424L167.821 13.5235L167.208 12.9546V9.83453L167.821 9.53631L167.118 9.48506V7.46983L168.75 8.38809L167.118 7.2491L167.206 6.50031L167.069 5.85391C166.791 5.43745 166.297 5.19051 165.585 5.10512L165.12 0.317911L165.117 0.319194ZM166.334 30.9645L167.066 30.2157L167.521 29.5956L168.539 28.8481L167.411 29.12V27.9206L169.875 30.7858L171.931 29.17L169.35 30.6926L170.626 31.4322L171.695 31.8328L172.772 32.1048L173.237 32.5304L172.624 33.2018L168.944 32.4109L166.798 31.6122L168.944 32.6329L172.474 33.5512L170.941 35.0476L168.537 35.7951L166.332 30.9658L166.334 30.9645ZM168.598 8.16742L169.35 8.61799L169.47 8.38809L168.797 7.8193L168.6 8.16742H168.598ZM169.963 31.4834L170.448 32.206L169.873 31.5347L171.348 31.8328L169.963 31.4834ZM178.436 0.123483L178.496 2.51314L179.336 3.13318L178.555 2.83497L178.436 12.0271L178.496 22.0443L178.377 27.1717L178.496 27.3505L180.325 27.4529L178.496 27.5475L178.377 28.7968L178.555 28.9414L178.328 29.4169L178.436 30.6663L179.336 31.712L178.555 32.4608L179.336 33.1755L179.891 32.9036L179.712 33.3279L179.365 33.6261L180.146 34.0517L178.989 34.6718L178.555 35.5218L178.615 35.6663H179.486L179.654 35.1474L180.554 35.5718H184.442L184.382 32.3321L183.947 31.7632L184.5 31.5084L184.55 26.6791L183.887 26.4584L183.6 26.9261L183.481 26.1024L178.613 22.1481L183.766 25.7792L184.439 24.7335L184.498 20.0054L184.549 15.7962L189.218 27.3005L189.713 27.403L189.456 28.1768L192.236 35.6256H195.045L195.569 35.422L196.004 35.6256L197.705 35.5744L197.685 35.0988L197.219 34.9963L197.823 34.4262L197.882 33.8573L197.626 33.4829L197.823 33.1348L196.438 32.3347L197.882 32.8536L197.763 31.7146L197.823 30.9921L197.763 29.9463L196.843 29.4196L198 29.6495L197.94 27.9232L197.328 27.805L196.605 26.5543L194.983 26.8775V26.5543L195.448 26.5031L195.883 26.5543L196.487 26.3585L194.954 23.9176L196.726 26.2561L197.882 25.9329L197.763 17.039L191.71 13.8755L191.65 20.2012L188.377 11.7828L184.728 9.71631L188.317 11.4596L184.144 0.176019H183.542V3.28823L182.869 0.176019L178.438 0.124765L178.436 0.123483ZM183.421 3.55886L184.202 10.854L184.498 11.2113L184.063 11.3558L183.222 3.66002L183.42 3.55752L183.421 3.55886ZM185.657 12.4528L185.163 12.6315L184.936 12.0534L185.657 12.4528ZM185.221 13.9754L184.728 14.2224L184.936 13.7048L185.223 13.9767L185.221 13.9754ZM182.928 19.7492L183.6 20.6754L182.671 19.9016L182.928 19.7479V19.7492ZM194.549 35.0975L194.985 33.7549L194.669 35.4206L191.453 32.4359L194.549 35.0975ZM193.452 20.2261L193.046 20.4218L192.778 20.0054L193.451 20.2261H193.452ZM191.216 23.7627L190.84 24.1121L190.721 23.6352L191.216 23.7627ZM194.293 21.7724L194.233 22.5382L193.768 21.7211L194.293 21.7724ZM197.824 16.8918L191.712 13.7968L191.771 9.91074L191.831 9.63876L191.652 9.23938L191.771 0.0735122L197.824 0.124765V3.88332L197.627 4.03708L197.884 4.50477L197.943 8.72178L197.39 9.29198L197.885 9.7675L197.826 16.8932L197.824 16.8918ZM182.552 5.37839L182.759 5.80272L182.206 5.75146L182.147 5.22469L182.552 5.37839ZM195.332 0.897221L195.648 1.31373L195.945 1.0667L195.332 0.897221ZM197.163 2.51314L196.984 2.88757H197.508L197.448 2.41198L197.161 2.51443L197.163 2.51314ZM192.266 3.80583L192.326 4.38385L192.613 3.98319L192.266 3.80454V3.80583ZM196.44 8.14247L196.667 8.76251L196.895 8.34607L196.44 8.14247ZM195.449 20.7267L194.985 21.101L194.788 20.5742L195.449 20.7279V20.7267ZM180.435 28.4986L179.367 29.0675L179.159 28.5499L180.435 28.4986ZM190.376 27.3505L189.942 27.5974L189.891 27.1731L190.376 27.3517V27.3505ZM181.651 27.5974L181.227 27.8273L181.276 27.403L181.651 27.5987V27.5974Z" fill="#292929"/>
</svg>
